<?xml version="1.0" encoding="utf-8"?>
<!-- Generator: Adobe Illustrator 23.0.0, SVG Export Plug-In . SVG Version: 6.00 Build 0)  -->
<svg version="1.1" id="Layer_1" xmlns="http://www.w3.org/2000/svg" xmlns:xlink="http://www.w3.org/1999/xlink" x="0px" y="0px"
	 viewBox="0 0 300 300" style="enable-background:new 0 0 300 300;" xml:space="preserve">
<style type="text/css">
	.st0{fill:#00A5E0;}
</style>
<g>
	<g>
		<path class="st0" d="M150,0C67.2,0,0,67.2,0,150c0,82.8,67.2,150,150,150c82.8,0,150-67.2,150-150C300,67.2,232.8,0,150,0z
			 M134.4,194.5c0,9.5-7.7,17.2-17.2,17.2S100,204,100,194.5v-89.1c0-9.5,7.7-17.2,17.2-17.2s17.2,7.7,17.2,17.2V194.5z M199,194.5
			c0,9.5-7.7,17.2-17.2,17.2c-9.5,0-17.2-7.7-17.2-17.2v-89.1c0-9.5,7.7-17.2,17.2-17.2S199,96,199,105.5V194.5z"/>
	</g>
</g>
</svg>
