<?xml version="1.0" encoding="utf-8"?>
<!-- Generator: Adobe Illustrator 23.0.0, SVG Export Plug-In . SVG Version: 6.00 Build 0)  -->
<svg version="1.1" id="Layer_1" xmlns="http://www.w3.org/2000/svg" xmlns:xlink="http://www.w3.org/1999/xlink" x="0px" y="0px"
	 viewBox="0 0 300 300" style="enable-background:new 0 0 300 300;" xml:space="preserve">
<style type="text/css">
	.st0{fill:#00A5E0;}
</style>
<g>
	<g>
		<path class="st0" d="M150,0C67.2,0,0,67.2,0,150c0,82.8,67.2,150,150,150s150-67.2,150-150C300,67.2,232.8,0,150,0z M205.8,158.3
			l-86.6,50c-1.3,0.8-2.8,1.1-4.3,1.1s-2.9-0.4-4.3-1.1c-2.6-1.5-4.3-4.3-4.3-7.4v-99.9c0-3.1,1.6-5.9,4.3-7.4
			c2.6-1.5,5.9-1.5,8.6,0l86.6,50c2.6,1.5,4.3,4.4,4.3,7.4C210.1,153.9,208.5,156.7,205.8,158.3z"/>
	</g>
</g>
</svg>
